<svg width="36" height="36" viewBox="0 0 36 36" fill="none" xmlns="http://www.w3.org/2000/svg">
<circle cx="18" cy="18" r="18" fill="white"/>
<g clip-path="url(#clip0_4270_2104)">
<path d="M6.34151 25.9763C6.50532 25.9763 6.66012 25.9935 6.80773 26.0299C6.95534 26.0662 7.08854 26.1236 7.20914 26.2059C7.32975 26.2882 7.43595 26.3953 7.52956 26.5273C7.62316 26.6612 7.70056 26.8258 7.75996 27.0209C7.86977 26.9999 7.92557 26.9367 7.92557 26.8353C7.92557 26.7531 7.89857 26.6498 7.84277 26.5254C7.78696 26.401 7.69876 26.2805 7.57636 26.1638C7.45395 26.0471 7.29375 25.9457 7.09574 25.8634C6.89773 25.7812 6.65472 25.7391 6.37211 25.7391C6.21191 25.7391 6.0733 25.7525 5.9581 25.7812C5.8429 25.8099 5.74749 25.8405 5.67009 25.8711C5.55309 25.808 5.44868 25.7238 5.35508 25.6224C5.26147 25.521 5.18227 25.4062 5.11747 25.278C5.05267 25.1498 5.00227 25.0121 4.96626 24.8628C4.93026 24.7136 4.91406 24.5606 4.91406 24.4037C4.91406 23.9675 5.00227 23.5925 5.18047 23.2787C5.35688 22.9669 5.58909 22.7105 5.8753 22.5134C6.16151 22.3164 6.48192 22.171 6.84013 22.0792C7.19834 21.9873 7.55656 21.9414 7.91837 21.9414C8.24238 21.9414 8.53759 21.9625 8.8004 22.0045C9.06321 22.0466 9.30082 22.104 9.50783 22.1729C9.71483 22.2418 9.89664 22.3202 10.0514 22.4082C10.2063 22.4962 10.3377 22.5823 10.4457 22.6722C10.4817 22.7851 10.5105 22.9095 10.5303 23.0453C10.5501 23.1812 10.5609 23.3208 10.5609 23.4662C10.5609 23.5619 10.5537 23.6633 10.5375 23.7666C10.5231 23.8718 10.4997 23.9732 10.4691 24.0727C10.4385 24.1722 10.4007 24.2659 10.3539 24.3558C10.3071 24.4439 10.2513 24.5204 10.1883 24.5854C10.1342 24.5472 10.0568 24.5032 9.95244 24.4553C9.84804 24.4075 9.73103 24.3635 9.59963 24.3214C9.46822 24.2793 9.32422 24.2468 9.17121 24.2181C9.01821 24.1894 8.8634 24.176 8.7104 24.176C8.49979 24.176 8.35399 24.1913 8.27118 24.2238C8.18838 24.2564 8.14878 24.3061 8.14878 24.3731C8.14878 24.4094 8.15418 24.4381 8.16318 24.463C8.22978 24.4458 8.30358 24.4324 8.38459 24.4266C8.46559 24.419 8.54119 24.4152 8.61499 24.4152C8.903 24.4152 9.18561 24.4534 9.46282 24.5299C9.74003 24.6065 9.98844 24.7327 10.2081 24.9088C10.4277 25.0848 10.6041 25.3163 10.7373 25.6032C10.8705 25.8902 10.9371 26.2442 10.9371 26.6632C10.9371 26.9941 10.8705 27.306 10.7373 27.6006C10.6041 27.8952 10.4079 28.1554 10.1486 28.3793C9.88944 28.6031 9.56903 28.7811 9.18561 28.9131C8.8022 29.0451 8.36119 29.1101 7.85897 29.1101C7.60156 29.1101 7.36035 29.1006 7.13714 29.0814C6.91393 29.0623 6.69973 29.0298 6.49452 28.9858C6.29111 28.9418 6.0949 28.8824 5.9077 28.8097C5.72049 28.737 5.53508 28.649 5.35148 28.5457C5.24167 28.3755 5.15167 28.1937 5.08147 28.0024C5.01127 27.8111 4.97706 27.593 4.97706 27.3462C4.97706 27.1548 5.01127 26.975 5.07967 26.8086C5.14807 26.6421 5.24347 26.4967 5.36228 26.3743C5.48288 26.2518 5.62689 26.1542 5.79429 26.0835C5.9617 26.0127 6.14531 25.9763 6.34511 25.9763H6.34151Z" fill="#29CDFF"/>
<path d="M14.374 29.1316C14.0932 29.1316 13.816 29.101 13.5424 29.0378C13.2688 28.9747 13.0096 28.881 12.7648 28.7528C12.52 28.6246 12.2968 28.4639 12.0898 28.2668C11.8846 28.0717 11.7063 27.8402 11.5551 27.5742C11.4039 27.3083 11.2869 27.0041 11.2041 26.6636C11.1213 26.323 11.0781 25.9423 11.0781 25.5233C11.0781 24.9015 11.1681 24.3639 11.3481 23.9105C11.5281 23.4571 11.7693 23.0821 12.07 22.7855C12.3706 22.489 12.718 22.269 13.1104 22.1274C13.5028 21.9858 13.9132 21.915 14.3416 21.915C14.8493 21.915 15.3065 22.003 15.7097 22.1791C16.1147 22.3551 16.4567 22.6019 16.7375 22.9175C17.0183 23.2332 17.2343 23.6139 17.3837 24.0578C17.535 24.5017 17.6088 24.9895 17.6088 25.5233C17.6088 26.1566 17.5242 26.6999 17.3549 27.1533C17.1857 27.6087 16.9553 27.9818 16.6637 28.2745C16.3721 28.5672 16.0283 28.7834 15.6359 28.9211C15.2435 29.0589 14.8205 29.1297 14.3704 29.1297L14.374 29.1316ZM14.5738 25.2842C14.5738 25.1139 14.5702 24.9666 14.563 24.8441C14.5558 24.7217 14.545 24.6203 14.5288 24.538C14.5126 24.4634 14.4892 24.4137 14.4604 24.3888C14.4316 24.3639 14.3992 24.3524 14.3632 24.3524C14.3272 24.3524 14.2984 24.3582 14.2786 24.3716C14.2588 24.385 14.2426 24.3964 14.2282 24.406C14.2318 24.4691 14.2372 24.5285 14.2426 24.5839C14.248 24.6394 14.2552 24.7006 14.2606 24.7695C14.266 24.8384 14.2696 24.9187 14.2732 25.0087C14.2768 25.0986 14.2786 25.2095 14.2786 25.3416V25.6878C14.2786 25.8199 14.2786 25.9308 14.2732 26.0207C14.2696 26.1107 14.266 26.191 14.2606 26.2599C14.2552 26.3288 14.2498 26.3919 14.2426 26.4455C14.2354 26.499 14.23 26.5603 14.2282 26.6234C14.2408 26.6349 14.2588 26.6464 14.2786 26.6578C14.2984 26.6712 14.3272 26.677 14.3632 26.677C14.3992 26.677 14.4316 26.6636 14.4604 26.6406C14.4892 26.6157 14.5108 26.566 14.5288 26.4914C14.545 26.4091 14.5576 26.3077 14.563 26.1853C14.5702 26.0628 14.5738 25.9155 14.5738 25.7452V25.2822V25.2842Z" fill="#29CDFF"/>
<path d="M19.0475 28.9667C18.6856 28.9667 18.403 28.8653 18.1942 28.6606C17.9872 28.4558 17.8828 28.1383 17.8828 27.704V22.9076C17.8828 22.766 17.9548 22.6359 18.1006 22.5192C18.2464 22.4025 18.4354 22.3011 18.6694 22.215C18.9034 22.1289 19.1681 22.0639 19.4615 22.0161C19.7549 21.9682 20.0537 21.9434 20.3543 21.9434C20.8853 21.9434 21.3713 22.0122 21.8106 22.1519C22.2498 22.2896 22.6278 22.5058 22.9464 22.7966C23.2632 23.0874 23.5098 23.4586 23.6862 23.9101C23.8626 24.3616 23.949 24.9011 23.949 25.5306C23.949 26.0816 23.8644 26.5694 23.6952 26.9961C23.526 27.4227 23.2848 27.7824 22.968 28.0751C22.6512 28.3678 22.2696 28.5898 21.8232 28.7409C21.3767 28.8921 20.8727 28.9667 20.3147 28.9667H19.0457H19.0475ZM20.9177 25.2838C20.9177 25.1135 20.9141 24.9662 20.9069 24.8438C20.8997 24.7213 20.8889 24.6199 20.8727 24.5376C20.8565 24.463 20.8331 24.4133 20.8043 24.3884C20.7755 24.3635 20.7431 24.3521 20.7071 24.3521C20.6711 24.3521 20.6423 24.3578 20.6225 24.3712C20.6027 24.3846 20.5865 24.3961 20.5721 24.4056C20.5757 24.4688 20.5811 24.5281 20.5865 24.5836C20.5919 24.639 20.5991 24.7003 20.6045 24.7691C20.6099 24.838 20.6135 24.9184 20.6171 25.0083C20.6207 25.0982 20.6225 25.2092 20.6225 25.3412V25.6875C20.6225 25.8195 20.6225 25.9304 20.6171 26.0204C20.6135 26.1103 20.6099 26.1906 20.6045 26.2595C20.5991 26.3284 20.5937 26.3915 20.5865 26.4451C20.5793 26.4987 20.5739 26.5599 20.5721 26.623C20.5847 26.6345 20.6027 26.646 20.6225 26.6575C20.6423 26.6708 20.6711 26.6766 20.7071 26.6766C20.7431 26.6766 20.7755 26.6632 20.8043 26.6402C20.8331 26.6154 20.8547 26.5656 20.8727 26.491C20.8889 26.4087 20.9015 26.3073 20.9069 26.1849C20.9141 26.0625 20.9177 25.9151 20.9177 25.7449V25.2819V25.2838Z" fill="#29CDFF"/>
<path d="M24.9712 22.567C25.1008 22.479 25.2484 22.3967 25.4123 22.324C25.5761 22.2513 25.7489 22.1901 25.9307 22.1403C26.1125 22.0906 26.3015 22.0523 26.4977 22.0255C26.6939 21.9987 26.8901 21.9854 27.0863 21.9854C27.3473 21.9854 27.6047 22.0102 27.8603 22.06C28.116 22.1097 28.35 22.1881 28.5606 22.2953C28.7712 22.4024 28.9512 22.5402 29.1024 22.7085C29.2536 22.8769 29.3544 23.0797 29.4084 23.3131L30.5514 28.339C30.3984 28.5495 30.1824 28.7217 29.9052 28.8556C29.628 28.9914 29.277 29.0584 28.8522 29.0584C28.665 29.0584 28.4886 29.0412 28.3248 29.0048C28.161 28.9685 28.0169 28.9168 27.8909 28.848C27.7649 28.7791 27.6623 28.6911 27.5795 28.5858C27.4967 28.4806 27.4445 28.3582 27.4211 28.2147L27.3113 27.5642C27.4157 27.5604 27.5183 27.547 27.6191 27.524C27.7217 27.5011 27.8135 27.4724 27.8945 27.4379C27.9773 27.4035 28.0439 27.3652 28.0944 27.3231C28.1466 27.2811 28.1718 27.237 28.1718 27.195C28.1718 27.1376 28.1502 27.0916 28.1069 27.0572C28.0475 27.1031 27.9773 27.1452 27.8963 27.1816C27.8153 27.2179 27.7325 27.2504 27.6425 27.2753C27.5543 27.3002 27.4661 27.3193 27.3761 27.3308C27.2879 27.3442 27.2051 27.3499 27.1277 27.3499C26.9837 27.3499 26.8559 27.3404 26.7443 27.3212C26.6327 27.3021 26.5337 27.2772 26.4509 27.2485C26.3681 27.2198 26.2961 27.1892 26.2349 27.1548C26.1755 27.1203 26.1251 27.0878 26.0837 27.0553C26.0711 27.0725 26.0585 27.0936 26.0495 27.1165C26.0387 27.1395 26.0351 27.1663 26.0351 27.193C26.0351 27.2466 26.0603 27.2944 26.1125 27.3404C26.1647 27.3844 26.2331 27.4245 26.3213 27.4571C26.4095 27.4896 26.5067 27.5183 26.6201 27.5393C26.7317 27.5604 26.8505 27.5757 26.9729 27.5814C26.9927 27.8301 27.0161 28.0291 27.0413 28.1764C27.0665 28.3237 27.0899 28.4175 27.1133 28.4557C27.0827 28.517 27.0233 28.5801 26.9351 28.6509C26.8469 28.7198 26.7353 28.7848 26.6039 28.846C26.4725 28.9073 26.3213 28.957 26.1521 28.9953C25.9829 29.0335 25.8029 29.0546 25.6139 29.0546C25.3763 29.0546 25.153 29.0259 24.9424 28.9685C24.7318 28.9111 24.5482 28.8326 24.3916 28.7312C24.235 28.6298 24.109 28.5074 24.0154 28.3639C23.9218 28.2204 23.875 28.0597 23.875 27.8818C23.875 27.8435 23.875 27.8034 23.8804 27.7613C23.884 27.7211 23.8912 27.679 23.9002 27.6369L24.9676 22.5631L24.9712 22.567ZM27.3275 25.3105C27.2915 25.0981 27.2609 24.9259 27.2393 24.7996C27.2177 24.6715 27.1961 24.5758 27.1745 24.5088C27.1529 24.4419 27.1295 24.3998 27.1043 24.3807C27.0791 24.3615 27.0485 24.352 27.0107 24.352C26.9873 24.352 26.9657 24.3558 26.9459 24.3634C26.9261 24.3711 26.9081 24.3768 26.8901 24.3845L27.0809 25.4616C27.0935 25.475 27.1133 25.4865 27.1385 25.4941C27.1637 25.5018 27.1853 25.5056 27.2069 25.5056C27.2375 25.5056 27.2645 25.5018 27.2915 25.4922C27.3185 25.4827 27.3383 25.475 27.3509 25.4674L27.3257 25.3124L27.3275 25.3105Z" fill="#29CDFF"/>
<path d="M31.5936 18.7103L25.9036 13.4203C26.3176 12.9076 26.8 12.1825 27.1528 11.224C28.0133 8.89754 27.538 6.78347 27.3202 6.00098C26.6686 6.84469 25.7722 7.83955 24.5805 8.78658C23.8299 9.38349 23.1063 9.8484 22.4565 10.2119C22.4655 10.2215 22.4745 10.2291 22.4835 10.2387L19.4036 7.37464C18.6169 6.64381 17.3857 6.64381 16.5991 7.37464L13.5497 10.21C12.8999 9.8484 12.1763 9.38349 11.4257 8.78658C10.234 7.83764 9.3376 6.84469 8.68597 6.00098C8.46817 6.78347 7.99295 8.89563 8.85338 11.224C9.20619 12.1787 9.68681 12.9057 10.1008 13.4165L4.40542 18.7103C3.9122 19.1694 3.8618 19.9672 4.29382 20.4915C4.72583 21.0157 5.47646 21.0692 5.96968 20.6101L17.9995 9.42558L30.0293 20.6101C30.2543 20.8205 30.5334 20.9219 30.8106 20.9219C31.1418 20.9219 31.4694 20.7765 31.7052 20.4915C32.1372 19.9672 32.0868 19.1694 31.5936 18.7103Z" fill="#29CDFF"/>
<path d="M17.477 15.0137H15.8767C15.7355 15.0137 15.6211 15.1353 15.6211 15.2853V16.9862C15.6211 17.1362 15.7355 17.2578 15.8767 17.2578H17.477C17.6181 17.2578 17.7326 17.1362 17.7326 16.9862V15.2853C17.7326 15.1353 17.6181 15.0137 17.477 15.0137Z" fill="#29CDFF"/>
<path d="M20.1254 15.0137H18.5251C18.384 15.0137 18.2695 15.1353 18.2695 15.2853V16.9862C18.2695 17.1362 18.384 17.2578 18.5251 17.2578H20.1254C20.2666 17.2578 20.381 17.1362 20.381 16.9862V15.2853C20.381 15.1353 20.2666 15.0137 20.1254 15.0137Z" fill="#29CDFF"/>
<path d="M20.1254 17.8262H18.5251C18.384 17.8262 18.2695 17.9478 18.2695 18.0978V19.7987C18.2695 19.9487 18.384 20.0703 18.5251 20.0703H20.1254C20.2666 20.0703 20.381 19.9487 20.381 19.7987V18.0978C20.381 17.9478 20.2666 17.8262 20.1254 17.8262Z" fill="#29CDFF"/>
<path d="M17.477 17.8262H15.8767C15.7355 17.8262 15.6211 17.9478 15.6211 18.0978V19.7987C15.6211 19.9487 15.7355 20.0703 15.8767 20.0703H17.477C17.6181 20.0703 17.7326 19.9487 17.7326 19.7987V18.0978C17.7326 17.9478 17.6181 17.8262 17.477 17.8262Z" fill="#29CDFF"/>
</g>
<defs>
<clipPath id="clip0_4270_2104">
<rect width="28" height="23.1304" fill="white" transform="translate(4 6.00098)"/>
</clipPath>
</defs>
</svg>
