<svg width="25" height="24" viewBox="0 0 25 24" fill="none" xmlns="http://www.w3.org/2000/svg">
<path d="M1.73315 21.5999C1.73309 22.1522 2.18076 22.5999 2.73304 22.6C3.28533 22.6001 3.73309 22.1524 3.73315 21.6001L1.73315 21.5999ZM2.73356 17.9996L3.73356 17.9997L2.73356 17.9996ZM12.9332 15.4C13.4854 15.4 13.9332 14.9523 13.9332 14.4C13.9332 13.8477 13.4854 13.4 12.9332 13.4V15.4ZM21.9332 16.6C22.4854 16.6 22.9332 16.1523 22.9332 15.6C22.9332 15.0477 22.4854 14.6 21.9332 14.6V16.6ZM16.5332 14.6C15.9809 14.6 15.5332 15.0477 15.5332 15.6C15.5332 16.1523 15.9809 16.6 16.5332 16.6V14.6ZM18.2332 18.2999C18.2332 18.8521 18.6809 19.2999 19.2332 19.2999C19.7854 19.2999 20.2332 18.8521 20.2332 18.2999H18.2332ZM20.2332 12.8999C20.2332 12.3476 19.7854 11.8999 19.2332 11.8999C18.6809 11.8999 18.2332 12.3476 18.2332 12.8999H20.2332ZM18.2221 1.52769C17.7403 1.25765 17.1309 1.42928 16.8608 1.91104C16.5908 2.39281 16.7624 3.00226 17.2442 3.27231L18.2221 1.52769ZM17.2442 8.72769C16.7624 8.99774 16.5908 9.6072 16.8608 10.089C17.1309 10.5707 17.7403 10.7424 18.2221 10.4723L17.2442 8.72769ZM13.7332 6C13.7332 7.43594 12.5691 8.6 11.1332 8.6V10.6C13.6737 10.6 15.7332 8.54051 15.7332 6H13.7332ZM11.1332 8.6C9.69721 8.6 8.53315 7.43594 8.53315 6H6.53315C6.53315 8.54051 8.59264 10.6 11.1332 10.6V8.6ZM8.53315 6C8.53315 4.56406 9.69721 3.4 11.1332 3.4V1.4C8.59264 1.4 6.53315 3.45949 6.53315 6H8.53315ZM11.1332 3.4C12.5691 3.4 13.7332 4.56406 13.7332 6H15.7332C15.7332 3.45949 13.6737 1.4 11.1332 1.4V3.4ZM3.73315 21.6001L3.73356 17.9997L1.73356 17.9995L1.73315 21.5999L3.73315 21.6001ZM6.33356 13.4C3.79325 13.4 1.73384 15.4592 1.73356 17.9995L3.73356 17.9997C3.73372 16.5639 4.89773 15.4 6.33356 15.4V13.4ZM6.33356 15.4H12.9332V13.4H6.33356V15.4ZM21.9332 14.6H19.2332V16.6H21.9332V14.6ZM19.2332 14.6H16.5332V16.6H19.2332V14.6ZM20.2332 18.2999V15.6H18.2332V18.2999H20.2332ZM20.2332 15.6V12.8999H18.2332V15.6H20.2332ZM17.2442 3.27231C18.4818 3.96604 19.1332 4.98565 19.1332 6H21.1332C21.1332 4.0641 19.897 2.46652 18.2221 1.52769L17.2442 3.27231ZM19.1332 6C19.1332 7.01435 18.4818 8.03396 17.2442 8.72769L18.2221 10.4723C19.897 9.53348 21.1332 7.9359 21.1332 6H19.1332Z" fill="black"/>
</svg>
