<svg width="25" height="24" viewBox="0 0 25 24" fill="none" xmlns="http://www.w3.org/2000/svg">
<path d="M1.73315 21.5995C1.73309 22.1518 2.18076 22.5995 2.73304 22.5996C3.28533 22.5997 3.73309 22.152 3.73315 21.5997L1.73315 21.5995ZM12.9332 15.3996C13.4854 15.3996 13.9332 14.9519 13.9332 14.3996C13.9332 13.8473 13.4854 13.3996 12.9332 13.3996V15.3996ZM21.9332 16.5996C22.4854 16.5996 22.9332 16.1519 22.9332 15.5996C22.9332 15.0473 22.4854 14.5996 21.9332 14.5996V16.5996ZM16.5332 14.5996C15.9809 14.5996 15.5332 15.0473 15.5332 15.5996C15.5332 16.1519 15.9809 16.5996 16.5332 16.5996V14.5996ZM18.2332 18.2995C18.2332 18.8517 18.6809 19.2995 19.2332 19.2995C19.7854 19.2995 20.2332 18.8517 20.2332 18.2995H18.2332ZM20.2332 12.8995C20.2332 12.3472 19.7854 11.8995 19.2332 11.8995C18.6809 11.8995 18.2332 12.3472 18.2332 12.8995H20.2332ZM18.2221 1.52728C17.7403 1.25724 17.1309 1.42887 16.8608 1.91063C16.5908 2.3924 16.7624 3.00185 17.2442 3.2719L18.2221 1.52728ZM17.2442 8.72728C16.7624 8.99733 16.5908 9.60679 16.8608 10.0886C17.1309 10.5703 17.7403 10.742 18.2221 10.4719L17.2442 8.72728ZM13.7332 5.99959C13.7332 7.43553 12.5691 8.59959 11.1332 8.59959V10.5996C13.6737 10.5996 15.7332 8.5401 15.7332 5.99959H13.7332ZM11.1332 8.59959C9.69721 8.59959 8.53315 7.43553 8.53315 5.99959H6.53315C6.53315 8.5401 8.59264 10.5996 11.1332 10.5996V8.59959ZM8.53315 5.99959C8.53315 4.56365 9.69721 3.39959 11.1332 3.39959V1.39959C8.59264 1.39959 6.53315 3.45908 6.53315 5.99959H8.53315ZM11.1332 3.39959C12.5691 3.39959 13.7332 4.56365 13.7332 5.99959H15.7332C15.7332 3.45908 13.6737 1.39959 11.1332 1.39959V3.39959ZM3.73315 21.5997L3.73356 17.9993L1.73356 17.9991L1.73315 21.5995L3.73315 21.5997ZM6.33356 13.3996C3.79325 13.3996 1.73384 15.4588 1.73356 17.9991L3.73356 17.9993C3.73372 16.5635 4.89773 15.3996 6.33356 15.3996V13.3996ZM6.33356 15.3996H12.9332V13.3996H6.33356V15.3996ZM21.9332 14.5996H19.2332V16.5996H21.9332V14.5996ZM19.2332 14.5996H16.5332V16.5996H19.2332V14.5996ZM20.2332 18.2995V15.5996H18.2332V18.2995H20.2332ZM20.2332 15.5996V12.8995H18.2332V15.5996H20.2332ZM17.2442 3.2719C18.4818 3.96563 19.1332 4.98524 19.1332 5.99959H21.1332C21.1332 4.06369 19.897 2.46611 18.2221 1.52728L17.2442 3.2719ZM19.1332 5.99959C19.1332 7.01394 18.4818 8.03355 17.2442 8.72728L18.2221 10.4719C19.897 9.53307 21.1332 7.93549 21.1332 5.99959H19.1332Z" fill="#B7B7B7"/>
</svg>
