<svg width="20" height="20" viewBox="0 0 20 20" fill="none" xmlns="http://www.w3.org/2000/svg">
<path fill-rule="evenodd" clip-rule="evenodd" d="M10 1.66675C10.4421 1.66675 10.866 1.84234 11.1786 2.1549C11.4911 2.46746 11.6667 2.89139 11.6667 3.33341C11.6667 3.77544 11.4911 4.19937 11.1786 4.51193C10.866 4.82449 10.4421 5.00008 10 5.00008C9.55801 5.00008 9.13409 4.82449 8.82153 4.51193C8.50897 4.19937 8.33337 3.77544 8.33337 3.33341C8.33337 2.89139 8.50897 2.46746 8.82153 2.1549C9.13409 1.84234 9.55801 1.66675 10 1.66675Z" fill="black"/>
<path fill-rule="evenodd" clip-rule="evenodd" d="M10 8.33325C10.4421 8.33325 10.866 8.50885 11.1786 8.82141C11.4911 9.13397 11.6667 9.55789 11.6667 9.99992C11.6667 10.4419 11.4911 10.8659 11.1786 11.1784C10.866 11.491 10.4421 11.6666 10 11.6666C9.55801 11.6666 9.13409 11.491 8.82153 11.1784C8.50897 10.8659 8.33337 10.4419 8.33337 9.99992C8.33337 9.55789 8.50897 9.13397 8.82153 8.82141C9.13409 8.50885 9.55801 8.33325 10 8.33325Z" fill="black"/>
<path fill-rule="evenodd" clip-rule="evenodd" d="M10 15C10.4421 15 10.866 15.1756 11.1786 15.4882C11.4911 15.8007 11.6667 16.2246 11.6667 16.6667C11.6667 17.1087 11.4911 17.5326 11.1786 17.8452C10.866 18.1577 10.4421 18.3333 10 18.3333C9.55801 18.3333 9.13409 18.1577 8.82153 17.8452C8.50897 17.5326 8.33337 17.1087 8.33337 16.6667C8.33337 16.2246 8.50897 15.8007 8.82153 15.4882C9.13409 15.1756 9.55801 15 10 15Z" fill="black"/>
</svg>
