<svg width="25" height="24" viewBox="0 0 25 24" fill="none" xmlns="http://www.w3.org/2000/svg">
<path d="M2.06641 21.6003C2.06634 22.1526 2.51401 22.6003 3.06629 22.6004C3.61858 22.6005 4.06634 22.1528 4.06641 21.6005L2.06641 21.6003ZM13.8664 15.4004C14.4187 15.4004 14.8664 14.9527 14.8664 14.4004C14.8664 13.8481 14.4187 13.4004 13.8664 13.4004V15.4004ZM21.5593 18.1075C21.9498 18.498 22.583 18.498 22.9735 18.1075C23.364 17.717 23.364 17.0838 22.9735 16.6933L21.5593 18.1075ZM19.1551 12.8749C18.7646 12.4844 18.1314 12.4844 17.7409 12.8749C17.3504 13.2654 17.3504 13.8986 17.7409 14.2891L19.1551 12.8749ZM17.741 16.6932C17.3505 17.0837 17.3505 17.7169 17.741 18.1074C18.1315 18.4979 18.7647 18.4979 19.1552 18.1074L17.741 16.6932ZM22.9736 14.289C23.3641 13.8985 23.3641 13.2653 22.9736 12.8748C22.5831 12.4843 21.9499 12.4843 21.5594 12.8748L22.9736 14.289ZM14.0664 6.00039C14.0664 7.43633 12.9023 8.60039 11.4664 8.60039V10.6004C14.0069 10.6004 16.0664 8.5409 16.0664 6.00039H14.0664ZM11.4664 8.60039C10.0305 8.60039 8.86641 7.43633 8.86641 6.00039H6.86641C6.86641 8.5409 8.9259 10.6004 11.4664 10.6004V8.60039ZM8.86641 6.00039C8.86641 4.56445 10.0305 3.40039 11.4664 3.40039V1.40039C8.9259 1.40039 6.86641 3.45988 6.86641 6.00039H8.86641ZM11.4664 3.40039C12.9023 3.40039 14.0664 4.56445 14.0664 6.00039H16.0664C16.0664 3.45988 14.0069 1.40039 11.4664 1.40039V3.40039ZM4.06641 21.6005L4.06681 18.0001L2.06681 17.9999L2.06641 21.6003L4.06641 21.6005ZM6.66681 13.4004C4.1265 13.4004 2.0671 15.4596 2.06681 17.9999L4.06681 18.0001C4.06697 16.5643 5.23098 15.4004 6.66681 15.4004V13.4004ZM6.66681 15.4004H13.8664V13.4004H6.66681V15.4004ZM22.9735 16.6933L21.0643 14.7841L19.6501 16.1983L21.5593 18.1075L22.9735 16.6933ZM21.0643 14.7841L19.1551 12.8749L17.7409 14.2891L19.6501 16.1983L21.0643 14.7841ZM19.1552 18.1074L21.0643 16.1983L19.6501 14.7841L17.741 16.6932L19.1552 18.1074ZM21.0643 16.1983L22.9736 14.289L21.5594 12.8748L19.6501 14.7841L21.0643 16.1983Z" fill="#B7B7B7"/>
</svg>
