<svg width="25" height="24" viewBox="0 0 25 24" fill="none" xmlns="http://www.w3.org/2000/svg">
<path d="M2.06641 21.5999C2.06634 22.1522 2.51401 22.5999 3.06629 22.6C3.61858 22.6001 4.06634 22.1524 4.06641 21.6001L2.06641 21.5999ZM3.06681 17.9996L4.06681 17.9997L3.06681 17.9996ZM13.8664 15.4C14.4187 15.4 14.8664 14.9523 14.8664 14.4C14.8664 13.8477 14.4187 13.4 13.8664 13.4V15.4ZM21.5593 18.1071C21.9498 18.4976 22.583 18.4976 22.9735 18.1071C23.364 17.7166 23.364 17.0834 22.9735 16.6929L21.5593 18.1071ZM19.1551 12.8745C18.7646 12.484 18.1314 12.484 17.7409 12.8745C17.3504 13.265 17.3504 13.8982 17.7409 14.2887L19.1551 12.8745ZM17.741 16.6928C17.3505 17.0833 17.3505 17.7165 17.741 18.107C18.1315 18.4975 18.7647 18.4975 19.1552 18.107L17.741 16.6928ZM22.9736 14.2886C23.3641 13.8981 23.3641 13.2649 22.9736 12.8744C22.5831 12.4839 21.9499 12.4839 21.5594 12.8744L22.9736 14.2886ZM14.0664 5.99999C14.0664 7.43593 12.9023 8.59999 11.4664 8.59999V10.6C14.0069 10.6 16.0664 8.5405 16.0664 5.99999H14.0664ZM11.4664 8.59999C10.0305 8.59999 8.86641 7.43593 8.86641 5.99999H6.86641C6.86641 8.5405 8.9259 10.6 11.4664 10.6V8.59999ZM8.86641 5.99999C8.86641 4.56405 10.0305 3.39999 11.4664 3.39999V1.39999C8.9259 1.39999 6.86641 3.45948 6.86641 5.99999H8.86641ZM11.4664 3.39999C12.9023 3.39999 14.0664 4.56405 14.0664 5.99999H16.0664C16.0664 3.45948 14.0069 1.39999 11.4664 1.39999V3.39999ZM4.06641 21.6001L4.06681 17.9997L2.06681 17.9995L2.06641 21.5999L4.06641 21.6001ZM6.66681 13.4C4.1265 13.4 2.0671 15.4592 2.06681 17.9995L4.06681 17.9997C4.06697 16.5639 5.23098 15.4 6.66681 15.4V13.4ZM6.66681 15.4H13.8664V13.4H6.66681V15.4ZM22.9735 16.6929L21.0643 14.7837L19.6501 16.1979L21.5593 18.1071L22.9735 16.6929ZM21.0643 14.7837L19.1551 12.8745L17.7409 14.2887L19.6501 16.1979L21.0643 14.7837ZM19.1552 18.107L21.0643 16.1979L19.6501 14.7837L17.741 16.6928L19.1552 18.107ZM21.0643 16.1979L22.9736 14.2886L21.5594 12.8744L19.6501 14.7837L21.0643 16.1979Z" fill="black"/>
</svg>
